<svg width="117" height="36" viewBox="0 0 117 36" fill="none" xmlns="http://www.w3.org/2000/svg">
<path d="M16.095 20.564C16.095 21.822 15.9593 22.9937 15.688 24.079C15.4167 25.1643 14.9357 26.114 14.245 26.928C13.579 27.742 12.6663 28.3833 11.507 28.852C10.3723 29.3207 8.92933 29.555 7.178 29.555C5.55 29.555 4.13167 29.333 2.923 28.889C1.739 28.4203 0.826333 27.927 0.185 27.409L1.85 23.746C2.46667 24.1653 3.219 24.5723 4.107 24.967C5.01967 25.337 5.94467 25.522 6.882 25.522C8.46067 25.522 9.60767 25.1273 10.323 24.338C11.0383 23.5487 11.396 22.192 11.396 20.268V3.359H16.095V20.564ZM37.6917 28.408C36.8284 28.63 35.7061 28.852 34.3247 29.074C32.9434 29.3207 31.4264 29.444 29.7737 29.444C28.2197 29.444 26.9124 29.222 25.8517 28.778C24.8157 28.334 23.9771 27.7173 23.3357 26.928C22.7191 26.1387 22.2751 25.2013 22.0037 24.116C21.7324 23.006 21.5967 21.7973 21.5967 20.49V9.649H26.0737V19.787C26.0737 21.859 26.3697 23.339 26.9617 24.227C27.5784 25.115 28.6391 25.559 30.1437 25.559C30.6864 25.559 31.2537 25.5343 31.8457 25.485C32.4624 25.4357 32.9187 25.374 33.2147 25.3V9.649H37.6917V28.408ZM40.911 35.882C40.5903 35.882 40.1463 35.845 39.579 35.771C38.987 35.7217 38.469 35.6107 38.025 35.438L38.617 31.775C39.1597 31.9477 39.8133 32.034 40.578 32.034C41.614 32.034 42.3417 31.7257 42.761 31.109C43.1803 30.517 43.39 29.6167 43.39 28.408V9.649H47.867V28.482C47.867 30.998 47.2627 32.8603 46.054 34.069C44.87 35.2777 43.1557 35.882 40.911 35.882ZM48.348 3.988C48.348 4.82667 48.0767 5.49267 47.534 5.986C46.9913 6.47933 46.35 6.726 45.61 6.726C44.8453 6.726 44.1917 6.47933 43.649 5.986C43.1063 5.49267 42.835 4.82667 42.835 3.988C42.835 3.12467 43.1063 2.44633 43.649 1.953C44.1917 1.45967 44.8453 1.213 45.61 1.213C46.35 1.213 46.9913 1.45967 47.534 1.953C48.0767 2.44633 48.348 3.12467 48.348 3.988ZM69.4525 28.408C68.5891 28.63 67.4668 28.852 66.0855 29.074C64.7041 29.3207 63.1871 29.444 61.5345 29.444C59.9805 29.444 58.6731 29.222 57.6125 28.778C56.5765 28.334 55.7378 27.7173 55.0965 26.928C54.4798 26.1387 54.0358 25.2013 53.7645 24.116C53.4931 23.006 53.3575 21.7973 53.3575 20.49V9.649H57.8345V19.787C57.8345 21.859 58.1305 23.339 58.7225 24.227C59.3391 25.115 60.3998 25.559 61.9045 25.559C62.4471 25.559 63.0145 25.5343 63.6065 25.485C64.2231 25.4357 64.6795 25.374 64.9755 25.3V9.649H69.4525V28.408ZM86.1768 13.682C85.8068 13.5587 85.2888 13.4353 84.6228 13.312C83.9814 13.164 83.2291 13.09 82.3658 13.09C81.8724 13.09 81.3421 13.1393 80.7748 13.238C80.2321 13.3367 79.8498 13.423 79.6278 13.497V29H75.1508V10.574C76.0141 10.2533 77.0871 9.95733 78.3698 9.686C79.6771 9.39 81.1201 9.242 82.6988 9.242C82.9948 9.242 83.3401 9.26667 83.7348 9.316C84.1294 9.34067 84.5241 9.39 84.9188 9.464C85.3134 9.51333 85.6958 9.58733 86.0658 9.686C86.4358 9.76 86.7318 9.834 86.9538 9.908L86.1768 13.682ZM96.8076 29.37C95.4756 29.3453 94.3656 29.1973 93.4776 28.926C92.6143 28.6547 91.9236 28.2723 91.4056 27.779C90.8876 27.261 90.5176 26.632 90.2956 25.892C90.0983 25.1273 89.9996 24.264 89.9996 23.302V1.028L94.4766 0.287999V22.451C94.4766 22.9937 94.5136 23.45 94.5876 23.82C94.6863 24.19 94.8466 24.5107 95.0686 24.782C95.2906 25.0287 95.5866 25.226 95.9566 25.374C96.3513 25.4973 96.8446 25.596 97.4366 25.67L96.8076 29.37ZM116.857 9.649C114.859 16.9997 112.54 23.6597 109.901 29.629C109.408 30.739 108.902 31.6887 108.384 32.478C107.866 33.2673 107.286 33.921 106.645 34.439C106.004 34.957 105.288 35.327 104.499 35.549C103.71 35.7957 102.797 35.919 101.761 35.919C101.07 35.919 100.38 35.845 99.689 35.697C99.023 35.549 98.5173 35.3887 98.172 35.216L98.986 31.627C99.874 31.9723 100.75 32.145 101.613 32.145C102.772 32.145 103.673 31.8613 104.314 31.294C104.98 30.7513 105.56 29.9003 106.053 28.741C104.647 26.0277 103.29 23.0677 101.983 19.861C100.7 16.6543 99.5533 13.2503 98.542 9.649H103.315C103.562 10.685 103.858 11.8073 104.203 13.016C104.573 14.2247 104.968 15.458 105.387 16.716C105.806 17.9493 106.25 19.1827 106.719 20.416C107.188 21.6493 107.656 22.7963 108.125 23.857C108.914 21.6617 109.654 19.3307 110.345 16.864C111.036 14.3727 111.665 11.9677 112.232 9.649H116.857Z" fill="black"/>
</svg>
